<?xml version="1.0" standalone="no"?>
<!DOCTYPE svg PUBLIC "-//W3C//DTD SVG 20010904//EN"
 "http://www.w3.org/TR/2001/REC-SVG-20010904/DTD/svg10.dtd">
<svg version="1.0" xmlns="http://www.w3.org/2000/svg"
 width="95.000000pt" height="95.000000pt" viewBox="0 0 95.000000 95.000000"
 preserveAspectRatio="xMidYMid meet">
<metadata>
Created by potrace 1.11, written by Peter Selinger 2001-2013
</metadata>
<g transform="translate(0.000000,95.000000) scale(0.100000,-0.100000)"
fill="#000000" stroke="none">
<path d="M335 941 c-33 -9 -95 -39 -95 -46 0 -3 19 5 43 17 36 19 58 22 152
23 115 0 145 -8 220 -59 25 -17 28 -17 16 -2 -8 10 -38 29 -65 44 -43 22 -66
26 -146 28 -52 2 -108 0 -125 -5z"/>
<path d="M480 850 c0 -18 -12 -74 -27 -124 -28 -90 -28 -91 -34 -51 -6 40 -6
39 -8 -12 0 -28 -4 -60 -7 -70 -5 -13 -4 -15 4 -8 32 29 100 271 81 290 -5 5
-9 -4 -9 -25z"/>
<path d="M158 828 c-57 -87 -88 -209 -88 -344 0 -103 -14 -170 -52 -251 -11
-23 -18 -48 -16 -54 2 -7 19 26 38 72 30 75 34 99 41 220 8 142 23 211 73 322
27 60 28 72 4 35z"/>
<path d="M577 739 c-3 -52 -12 -112 -19 -134 -12 -40 -12 -39 -20 61 -4 55
-12 112 -18 125 -8 19 -9 15 -5 -26 2 -27 7 -87 11 -132 11 -142 48 -94 64 82
4 44 4 89 0 99 -4 11 -10 -21 -13 -75z"/>
<path d="M758 753 c36 -66 37 -71 37 -168 0 -55 -3 -113 -8 -130 l-7 -30 17
30 c10 18 18 61 21 108 5 85 -9 137 -57 214 -42 68 -44 50 -3 -24z"/>
<path d="M645 793 c4 -10 9 -52 11 -93 4 -79 0 -77 -30 15 -16 50 -15 42 6
-73 l11 -63 14 31 c7 18 13 42 14 54 1 28 31 -81 31 -116 1 -15 4 -26 7 -23 4
2 13 -16 20 -40 10 -33 10 -48 1 -65 -9 -16 -9 -25 0 -35 7 -9 9 -26 5 -45 -4
-16 -4 -30 -2 -30 7 0 47 88 46 102 0 7 -5 2 -10 -12 -8 -19 -12 -21 -19 -11
-4 8 -4 25 1 38 6 16 2 45 -15 101 -71 227 -89 282 -93 282 -3 0 -2 -8 2 -17z"/>
<path d="M415 785 c-4 -11 -21 -49 -38 -85 -48 -108 -59 -135 -49 -125 6 6 26
45 44 87 27 60 37 75 46 66 8 -8 12 -9 12 -1 0 6 -6 14 -12 16 -10 4 -10 8 0
15 8 5 12 18 10 28 -5 18 -5 18 -13 -1z"/>
<path d="M301 753 c-17 -61 -26 -219 -12 -227 8 -5 11 19 11 86 0 51 5 111 10
133 12 51 5 58 -9 8z"/>
<path d="M188 665 c-19 -165 49 -308 167 -350 28 -10 58 -26 67 -37 9 -10 20
-18 25 -17 4 1 20 1 36 0 25 -1 27 -4 25 -38 -1 -38 -1 -38 -5 -5 -2 18 -8 30
-13 27 -5 -3 -7 -13 -4 -23 4 -12 0 -11 -14 6 -30 33 -36 27 -12 -14 12 -19
20 -38 16 -41 -3 -4 -6 -1 -6 5 0 6 -24 18 -52 27 -71 23 -75 29 -36 53 35 23
32 30 -5 11 -37 -19 -87 -72 -87 -91 0 -11 -6 -31 -14 -46 -7 -15 -13 -49 -12
-77 l1 -50 65 0 65 0 28 44 c28 43 29 43 44 22 9 -13 12 -32 9 -45 -6 -23 -5
-24 84 -25 l90 -2 0 30 c0 17 5 42 12 55 9 21 8 29 -4 43 -9 10 -28 44 -43 76
-15 32 -34 61 -42 64 -20 8 23 53 52 53 11 0 26 5 32 11 8 8 17 8 29 1 14 -8
20 -5 31 15 21 40 6 44 -46 13 -48 -30 -78 -39 -66 -21 3 5 1 12 -5 16 -15 9
-190 -7 -190 -18 0 -6 16 -7 39 -3 23 3 42 2 46 -4 3 -5 16 -10 28 -9 21 0 21
1 2 9 -15 7 -10 9 23 9 38 1 42 -1 33 -17 -17 -32 -40 -45 -81 -45 -25 0 -48
7 -60 18 -11 10 -31 19 -43 21 -28 3 -85 27 -109 46 -9 8 -31 38 -49 68 -30
52 -33 63 -38 175 -6 111 -7 116 -13 60z m386 -413 c15 -18 15 -20 -7 -45 -31
-37 -49 -35 -46 6 3 32 15 57 29 57 4 0 14 -8 24 -18z m-204 -47 c17 -9 30
-24 30 -35 0 -22 28 -53 41 -45 15 10 10 -8 -15 -50 -22 -36 -30 -41 -85 -51
l-61 -11 0 29 c0 22 5 28 23 29 12 0 35 3 50 5 16 3 35 0 43 -7 10 -8 14 -8
14 0 0 18 -43 101 -53 101 -5 0 1 -16 12 -36 12 -20 21 -38 19 -39 -6 -4 -118
-14 -118 -10 0 3 6 19 14 37 8 18 20 48 26 66 14 36 19 38 60 17z m276 -120
c-3 -8 -17 -15 -31 -15 -18 0 -25 5 -25 20 0 11 -4 20 -10 20 -6 0 -6 9 0 26
6 14 10 40 11 57 0 29 2 27 30 -31 17 -35 28 -69 25 -77z m-107 71 c7 -8 11
-32 9 -53 -3 -33 -7 -38 -30 -41 -22 -3 -30 2 -38 23 -14 36 -13 51 6 69 19
20 38 20 53 2z m31 -106 l-8 -35 -1 31 c-1 17 2 34 6 37 11 12 12 3 3 -33z
m64 -16 c4 -10 -3 -14 -23 -14 -24 0 -28 4 -24 19 5 21 38 18 47 -5z"/>
<path d="M354 536 c-8 -21 3 -36 27 -36 15 0 20 6 17 22 -4 27 -35 37 -44 14z"/>
<path d="M604 535 c-4 -9 -2 -21 4 -27 15 -15 44 -1 40 19 -4 23 -36 29 -44 8z"/>
<path d="M309 439 c10 -22 24 -46 31 -52 7 -7 10 -7 8 -2 -2 6 -13 29 -23 53
-10 23 -22 42 -26 42 -4 0 0 -18 10 -41z"/>
<path d="M270 412 c0 -12 82 -72 97 -72 8 0 11 5 8 10 -3 6 -12 10 -18 10 -7
0 -26 14 -44 30 -33 31 -43 36 -43 22z"/>
<path d="M470 321 c0 -9 30 -24 36 -18 2 1 -6 8 -16 15 -11 7 -20 8 -20 3z"/>
<path d="M57 221 c-26 -47 -50 -97 -53 -111 -2 -14 7 -1 22 28 30 60 41 62 25
5 -6 -21 -10 -63 -10 -93 l2 -55 8 70 c5 39 11 84 13 100 4 30 7 39 33 104 23
58 10 42 -40 -48z"/>
<path d="M710 303 c0 -6 15 -31 33 -55 50 -65 105 -163 117 -208 12 -45 34
-56 24 -13 -13 54 -47 119 -102 193 -69 94 -72 97 -72 83z"/>
<path d="M187 186 c-9 -42 -17 -87 -16 -99 0 -12 9 18 20 68 10 50 17 94 16
99 -2 5 -11 -25 -20 -68z"/>
<path d="M730 209 c0 -4 14 -36 30 -72 17 -37 30 -80 30 -96 0 -16 5 -33 10
-36 6 -3 10 4 10 17 l1 23 14 -25 c13 -22 14 -23 15 -5 0 11 -18 50 -39 87
-43 73 -71 116 -71 107z"/>
<path d="M160 30 c0 -39 6 -39 12 0 3 16 1 30 -4 30 -4 0 -8 -13 -8 -30z"/>
</g>
</svg>
